<svg xmlns="http://www.w3.org/2000/svg" width="440.134" height="512.846" viewBox="0 0 440.134 512.846">
  <g id="Group_96" data-name="Group 96" transform="translate(-4.45 -254.825)" opacity="0.941">
    <g id="Group_95" data-name="Group 95" transform="translate(-2811.617 149.546)" opacity="0.092">
      <path id="Path_23" data-name="Path 23" d="M3183.539,276.194c-.82,15.414-5.8,28.16-16.883,38.882-18.117,17.534-35.773,35.562-53.562,53.441-8.008,8.045-7.93,10.508.07,18.686,10.086,10.313,10.078,10.3,20.352.058,5.7-5.7,11.234-11.615,17.25-16.976,8.1-7.205,12.867-7.214,21.094-.188s16.461,14.074,24.141,21.685c36.844,36.617,23.55,25.677,60.152,62.551.145,6.321-.069,153.972,0,154.033-13,12.946-20.644,13.076-33.73,0q-68-67.912-135.875-135.93a69.668,69.668,0,0,1-8.062-9.949c-6.141-8.982-5.789-13.813,1.891-21.964,6.727-7.16,13.711-14.1,20.813-20.906,3.93-3.769,3.969-6.714.156-10.783-13.211-14.086-14.359-14.232-27.852-.746-16.773,16.76-34.3,32.835-50.141,50.436-22.445,24.96-79.3,18.88-91.937-21.888-7.18-23.192-4.609-43.947,14.109-61.607,17.781-16.782,34.734-34.461,51.977-51.816,7.7-7.748,7.617-10.274-.023-18.137-10.344-10.641-10.336-10.629-20.891-.106-5.719,5.7-11.242,11.62-17.289,16.939-7.961,6.99-12.664,6.993-20.508.233-8.758-7.554-17.555-15.12-25.75-23.268-39.9-39.643-57.164-60.006-96.922-99.792-.124-.132.037-49.811,0-49.76-.1-.116,32.518-44.092,32.4-43.946.166-.056,17.03,0,16.481,0-.109-.2,17.349-.026,16.894,0-.3-.037,27.341.244,27.272,0,40.977,40.717,69.314,68.679,110.025,109.651a169.875,169.875,0,0,1,14.938,17.991c5.148,6.854.859,12.664-3.484,17.555-6.516,7.342-13.562,14.253-20.734,20.964-4.758,4.445-4.773,7.778-.1,12.476,13.016,13.082,13.688,13.255,26.8.136,16.766-16.764,34.352-32.8,50.109-50.457,22.516-25.2,78.836-19.023,91.789,20.63C3180.82,261.4,3181.891,268.892,3183.539,276.194Z" transform="translate(-0.003 0)" fill="#818888"/>
      <path id="Path_24" data-name="Path 24" d="M2804.578,203.36c.766-6.329,1.328-12.181,9.164-13.066,6.156-.691,11.57,4.2,12.555,11.529,6.078,45.875,49.117,88.239,94.023,94.247,7.3.976,12.1,5.967,11.57,11.6-.6,6.287-5.023,10.01-13.117,9.18a91.333,91.333,0,0,1-20.453-4.737c-45.734-15.926-75.969-46.933-89.93-93.488C2806.891,213.61,2805.836,208.452,2804.578,203.36Z" transform="translate(43.957 234.803)" fill="#818888"/>
      <path id="Path_25" data-name="Path 25" d="M2817.477,201.066c.953-6.972,4.078-11.433,10.43-12.185,6.375-.755,10.266,2.933,11.672,9.3q10.957,50.051,60.992,61.332c7.2,1.623,11.078,6.9,9.555,12.818-1.641,6.368-6.9,8.754-14.25,7.46-30.242-5.331-51.227-23.681-66.68-48.717C2823.641,222.084,2821.289,211.125,2817.477,201.066Z" transform="translate(70.172 231.867)" fill="#818888"/>
    </g>
  </g>
</svg>
