<svg width="40" height="40" viewBox="0 0 40 40" fill="none" xmlns="http://www.w3.org/2000/svg">
<path d="M40 0H0V40H40V0Z" fill="#F5F5F5"/>
<path d="M9 11.5C9 11.2239 9.22386 11 9.5 11H10.7C10.9761 11 11.2 11.2239 11.2 11.5V26.4H9V11.5Z" fill="#0A4393"/>
<path d="M9.5 28.6016C9.22386 28.6016 9 28.3777 9 28.1016L9 26.4016L30.5 26.4016C30.7761 26.4016 31 26.6254 31 26.9016L31 28.1016C31 28.3777 30.7761 28.6016 30.5 28.6016L9.5 28.6016Z" fill="#0A4393"/>
<path d="M29.9 14.3008L24.9857 20.5412C24.7783 20.8046 24.3755 20.7932 24.1832 20.5186L20.2706 14.9292C20.0635 14.6332 19.6205 14.6479 19.4334 14.9568L14.5 23.1008" stroke="#0A4393" stroke-width="2" stroke-linecap="round"/>
</svg>
