<svg width="40" height="40" viewBox="0 0 40 40" fill="none" xmlns="http://www.w3.org/2000/svg">
<path d="M40 0H0V40H40V0Z" fill="#F5F5F5"/>
<rect x="9" y="11.5508" width="2.2" height="16.5" rx="0.5" fill="#0A4393"/>
<rect x="9" y="29.1523" width="2.2" height="22" rx="0.5" transform="rotate(-90 9 29.1523)" fill="#0A4393"/>
<path d="M13.3999 14.647V25.1954C13.3999 25.5251 13.7134 25.7645 14.0315 25.6778L19.359 24.2248C19.4191 24.2084 19.4817 24.2034 19.5436 24.21L24.4467 24.734C24.5443 24.7444 24.6428 24.7259 24.73 24.6807L29.6301 22.1399C29.7958 22.054 29.8999 21.8828 29.8999 21.696V11.7138C29.8999 11.3669 29.5551 11.1254 29.229 11.244L23.9916 13.1485C23.8992 13.1821 23.7989 13.1877 23.7034 13.1646L19.4416 12.1359C19.3446 12.1125 19.2428 12.1186 19.1494 12.1535L13.725 14.1786C13.5295 14.2516 13.3999 14.4384 13.3999 14.647Z" fill="#0A4393"/>
<path d="M28.2498 17.6016L23.9927 19.6842C23.8428 19.7575 23.6661 19.7512 23.5218 19.6673L20.2139 17.7448C20.0612 17.656 19.8729 17.6545 19.7186 17.7407L15.0498 20.3516" stroke="#F5F5F5" stroke-width="1.8" stroke-linecap="round"/>
</svg>
