<svg width="33" height="33" viewBox="0 0 33 33" fill="none" xmlns="http://www.w3.org/2000/svg">
<rect width="33" height="33" fill="white"/>
<path d="M21.9738 18.1182L17.0889 18.1069L16.0559 25.9973L15.938 26L14.9194 18.1661L10.015 18.1853C9.95904 17.3853 10.0601 16.5821 10.3121 15.8229C10.7461 14.5068 11.6041 13.3814 12.7448 12.6319C12.8004 12.5999 12.8492 12.5568 12.8884 12.5053C12.9276 12.4537 12.9564 12.3947 12.9731 12.3316C12.9909 11.2444 12.985 10.1555 12.9867 9.09353C12.9374 9.06046 12.9264 9.0474 12.9154 9.04653C12.0513 8.97516 12.0513 8.97516 12.0513 8.08558C12.0521 7.51892 12.0564 6.95227 12.0504 6.38562C12.0479 6.11491 12.1328 5.99828 12.4264 6.00002C14.7844 6.01104 17.143 6.01162 19.5021 6.00175C19.8289 6.00088 19.9596 6.10882 19.9477 6.45873C19.9282 7.13506 19.9426 7.81313 19.9409 8.49033C19.9401 9.03262 19.9392 9.03175 19.3977 9.03697C19.2797 9.03784 19.1609 9.04479 19.014 9.05089C19.0123 10.1581 19.0013 11.247 19.0217 12.335C19.0234 12.4517 19.1948 12.5892 19.3162 12.6754C20.1656 13.2552 20.8573 14.0469 21.3264 14.9761C21.7955 15.9054 22.0264 16.9417 21.9976 17.9877C21.9938 18.0319 21.9858 18.0756 21.9738 18.1182Z" fill="#0A4393"/>
</svg>
