<svg width="12" height="18" viewBox="0 0 12 18" fill="#fbfffe" xmlns="http://www.w3.org/2000/svg">
<path d="M10.9833 10.6116L6.83614 10.6022L5.95914 17.1346L5.85898 17.1368L4.99423 10.6512L0.830476 10.6671C0.782969 10.0048 0.868731 9.33981 1.08269 8.7113C1.4512 7.62174 2.17958 6.69005 3.148 6.06949C3.1952 6.043 3.23664 6.00737 3.26993 5.96469C3.30321 5.922 3.32765 5.87312 3.34184 5.82089C3.35697 4.92083 3.35194 4.01932 3.35338 3.14016C3.31158 3.11278 3.30221 3.10197 3.29285 3.10125C2.55925 3.04216 2.55925 3.04216 2.55925 2.30569C2.55998 1.83656 2.56358 1.36744 2.55853 0.898312C2.55637 0.674199 2.62843 0.57764 2.87776 0.579082C4.87965 0.58821 6.88202 0.588684 8.88487 0.580517C9.16231 0.579796 9.27329 0.669154 9.2632 0.958844C9.24662 1.51877 9.25887 2.08013 9.25743 2.64078C9.25671 3.08973 9.25598 3.08901 8.79623 3.09333C8.69606 3.09405 8.59518 3.09981 8.47051 3.10486C8.46907 4.02149 8.4597 4.92299 8.47699 5.82376C8.47844 5.92033 8.624 6.03419 8.72705 6.10553C9.44818 6.58553 10.0354 7.24098 10.4337 8.0103C10.8319 8.77962 11.028 9.63756 11.0035 10.5035C11.0003 10.5401 10.9935 10.5763 10.9833 10.6116Z"/>
</svg>
