<svg id="main-logo" data-name="main logo" xmlns="http://www.w3.org/2000/svg" viewBox="0 0 863 351"><path class="cls-1" d="M483,314l8.89-42.46h14.51a51.07,51.07,0,0,1,6.6.29,14,14,0,0,1,5.3,1.74,8.66,8.66,0,0,1,3.3,3.47,10.33,10.33,0,0,1,1.13,4.81,9.86,9.86,0,0,1-2,6.13,12.05,12.05,0,0,1-6.08,3.92,9.6,9.6,0,0,1,5.11,3.2,8.11,8.11,0,0,1,1.84,5.2,13.29,13.29,0,0,1-2.17,7.25,12.2,12.2,0,0,1-6,4.94A29.33,29.33,0,0,1,503.05,314Zm10.16-6.84h8.43c3.53,0,5.9-.22,7.11-.68a6,6,0,0,0,2.89-2.24,5.67,5.67,0,0,0,1.09-3.3,4.44,4.44,0,0,0-1.56-3.49Q509.6,296,505.94,296H495.52Zm3.85-18.47h6.66a23.28,23.28,0,0,0,6.46-.64,5.38,5.38,0,0,0,3.94-5.18,3.88,3.88,0,0,0-.93-2.67,4.61,4.61,0,0,0-2.63-1.39,36.86,36.86,0,0,0-4.61-.17h-6.77Z"/><path class="cls-1" d="M535.44,314h-8.75l8.89-42.46h18.86a22.86,22.86,0,0,1,7.57,1,8.66,8.66,0,0,1,4.37,3.66,12,12,0,0,1,1.67,6.46,12.66,12.66,0,0,1-3.25,8.94c-2.16,2.34-5.43,3.8-9.81,4.35a17.11,17.11,0,0,1,3.15,4A105.74,105.74,0,0,1,564.66,314h-9.38q-1.14-3.6-4.43-11.21c-1.2-2.74-2.48-4.59-3.83-5.53a8.18,8.18,0,0,0-4.34-.84h-3.56Zm5-24h4.63c4.69,0,7.81-.28,9.34-.84a7.48,7.48,0,0,0,3.61-2.64,6.28,6.28,0,0,0,1.3-3.76,3.83,3.83,0,0,0-1.88-3.48q-1.16-.69-5-.69h-9.62Z"/><path class="cls-1" d="M572.7,297.32a30.11,30.11,0,0,1,1.13-7.94,28.25,28.25,0,0,1,4.5-9.7,21.81,21.81,0,0,1,7.63-6.5,22.45,22.45,0,0,1,10.48-2.39q7.88,0,12.73,4.89t4.85,13a28.55,28.55,0,0,1-3.16,13,23.53,23.53,0,0,1-8.57,9.67A22.6,22.6,0,0,1,590,314.72a17.54,17.54,0,0,1-10-2.69,15,15,0,0,1-5.7-6.68A20.3,20.3,0,0,1,572.7,297.32Zm8.63-.18a10.52,10.52,0,0,0,2.66,7.33,9,9,0,0,0,7,2.95,11.47,11.47,0,0,0,6.79-2.33,16.87,16.87,0,0,0,5.38-7.07,22.37,22.37,0,0,0,2.13-9.22c0-3.34-.89-6-2.69-7.86a9,9,0,0,0-6.86-2.85q-6.4,0-10.41,6A22.93,22.93,0,0,0,581.33,297.14Z"/><path class="cls-1" d="M657,314h-8.83l-1-31.05L631.79,314h-9l-1.59-42.46h8.54l.38,29.71,14.56-29.71h9.47l1,29.4,14-29.4h8.46Z"/><path class="cls-1" d="M674.57,300.21l8.31-.43c.12,2.64.57,4.43,1.37,5.35,1.27,1.51,3.63,2.26,7.06,2.26q4.29,0,6.2-1.53a4.62,4.62,0,0,0,1.91-3.71,4,4,0,0,0-1.56-3.18,30.58,30.58,0,0,0-6-3.1,56.7,56.7,0,0,1-7.21-3.58,10.45,10.45,0,0,1-3.58-3.72,10.61,10.61,0,0,1-1.3-5.36,11.51,11.51,0,0,1,3.88-8.89q3.89-3.52,11.23-3.53t11.57,3.5a12.91,12.91,0,0,1,4.51,9.33l-8.37.37a6.83,6.83,0,0,0-2.2-4.66,8.33,8.33,0,0,0-5.56-1.62q-3.63,0-5.17,1.27a4,4,0,0,0-1.55,3.22,3.74,3.74,0,0,0,1.42,3,29.05,29.05,0,0,0,6.28,3.33c4.89,2.1,8,3.81,9.33,5.13a9.94,9.94,0,0,1,3,7.44,12.44,12.44,0,0,1-4.45,9.6q-4.44,4-12.38,4a22.52,22.52,0,0,1-9.48-1.84,11.29,11.29,0,0,1-5.66-5.11A15.62,15.62,0,0,1,674.57,300.21Z"/><path class="cls-1" d="M713.39,314l8.86-42.46h31.48l-1.47,7.1H729.52l-2,9.64h22l-1.48,7.1H726l-2.67,11.52h24.71l-1.51,7.1Z"/><path class="cls-1" d="M762.46,314h-8.74l8.89-42.46h18.85a22.82,22.82,0,0,1,7.57,1,8.64,8.64,0,0,1,4.38,3.66,12,12,0,0,1,1.66,6.46,12.7,12.7,0,0,1-3.24,8.94c-2.16,2.34-5.44,3.8-9.82,4.35a17.4,17.4,0,0,1,3.16,4A104.64,104.64,0,0,1,791.68,314H782.3q-1.12-3.6-4.43-11.21c-1.2-2.74-2.47-4.59-3.82-5.53a8.2,8.2,0,0,0-4.35-.84h-3.56Zm5-24h4.64q7,0,9.34-.84a7.49,7.49,0,0,0,3.6-2.64,6.28,6.28,0,0,0,1.3-3.76,3.81,3.81,0,0,0-1.88-3.48q-1.15-.69-5-.69h-9.61Z"/><path id="use4073" class="cls-1" d="M759.55,162.69a26.49,26.49,0,0,0-8.3,5.26,21.63,21.63,0,0,0-5.43,7.45,17.12,17.12,0,0,0-1.35,9.15,19.79,19.79,0,0,0,4.24,10.51,21.63,21.63,0,0,0,8.3,6.27,57.13,57.13,0,0,0,10.67,3.56,62,62,0,0,1,9.49,3.39,13.76,13.76,0,0,1,5.76,4.57c1.36,1.87,1.87,4.58,1.87,8a14,14,0,0,1-3.9,8.64c-2.37,2.37-5.93,3.39-10.84,3.39a19,19,0,0,1-10.51-2.54,16.18,16.18,0,0,1-5.59-6.1,17.34,17.34,0,0,1-1.53-7.12H742.1a25.29,25.29,0,0,0,2.2,11.18,25.87,25.87,0,0,0,14.91,13.56,34,34,0,0,0,10.17,1.86,39.85,39.85,0,0,0,10-1.35,30.2,30.2,0,0,0,8.3-4.41,21.21,21.21,0,0,0,5.76-7.12,18.43,18.43,0,0,0,2-9.49,23.11,23.11,0,0,0-2.54-11.69,21.85,21.85,0,0,0-7.45-7.79,44.48,44.48,0,0,0-10.34-4.92l-9.83-3.39a28.06,28.06,0,0,1-7.12-3.55,8.48,8.48,0,0,1-3.38-5.6,9.4,9.4,0,0,1,2-7.62,14.84,14.84,0,0,1,6.27-4.92,19.8,19.8,0,0,1,6.27-1.18,15.58,15.58,0,0,1,8.13,2.37,12.42,12.42,0,0,1,5.09,6.61h11a20.7,20.7,0,0,0-1.86-5.42,41.87,41.87,0,0,0-4.58-6.27,21.63,21.63,0,0,0-7.29-5.09A23.86,23.86,0,0,0,769.55,161a19.9,19.9,0,0,0-10,1.69"/><g id="use4059"><path id="SVGID" class="cls-1" d="M724.81,164.56v41.51a23.78,23.78,0,0,1-1.86,9,21.17,21.17,0,0,1-4.92,7.29,30.11,30.11,0,0,1-7.11,5.08,21.72,21.72,0,0,1-24.74-5.08,21.17,21.17,0,0,1-4.92-7.29,23.78,23.78,0,0,1-1.86-9V164.56H668.72V205.9a31.09,31.09,0,0,0,2.71,13,35.5,35.5,0,0,0,7.12,10.85,34.31,34.31,0,0,0,10.51,7.28,30,30,0,0,0,12.71,2.71,30.7,30.7,0,0,0,12.87-2.71,34.31,34.31,0,0,0,10.51-7.28A35.5,35.5,0,0,0,732.27,219a35.11,35.11,0,0,0,2.54-13V164.56Z"/></g><g id="use4045"><path id="SVGID-2" data-name="SVGID" class="cls-1" d="M609.24,163.88a44.44,44.44,0,0,0-12.87,8.81,46.33,46.33,0,0,0-8.82,13.22,44.06,44.06,0,0,0,0,32.19,43.06,43.06,0,0,0,8.82,13.22,41.34,41.34,0,0,0,12.87,8.81,40.14,40.14,0,0,0,53-22l.51-1.18H651.44a29.71,29.71,0,0,1-5.08,7,31.72,31.72,0,0,1-9.66,6.6,25.36,25.36,0,0,1-11.7,2.38,29.88,29.88,0,0,1-21.35-9,30.52,30.52,0,0,1-9-21.69,32.53,32.53,0,0,1,2.37-12,28.05,28.05,0,0,1,6.61-9.82,29.66,29.66,0,0,1,33.05-6.61,29,29,0,0,1,9.66,6.61,38.69,38.69,0,0,1,4.91,6.77h11.35l-.51-1a40.29,40.29,0,0,0-21.52-22,39.49,39.49,0,0,0-31.35-.17"/></g><g id="use4031"><path id="SVGID-3" data-name="SVGID" class="cls-1" d="M566,240h10.34v-75.4H566Zm1-103.7a6.39,6.39,0,0,0-.17,9,6.54,6.54,0,0,0,4.58,1.86,6.12,6.12,0,0,0,4.4-1.86,6.56,6.56,0,0,0,0-9,6.12,6.12,0,0,0-8.81,0"/></g><path id="path3956" class="cls-2" d="M543.16,185.74a23.56,23.56,0,0,0-12-12.54,21.36,21.36,0,0,0-8.65-1.86,19.7,19.7,0,0,0-8.81,2,23.62,23.62,0,0,0-7.11,5.08c-1,1.19-2,2.37-2.89,3.56v.51a27.86,27.86,0,0,0,41.18,24.57V194.38a23.14,23.14,0,0,0-1.69-8.64"/><g id="use4017"><path id="SVGID-4" data-name="SVGID" class="cls-1" d="M515.71,161.51a28.65,28.65,0,0,0-6.44,2.2,23.44,23.44,0,0,0-5.6,3.39,16.25,16.25,0,0,0-3.89,4.4v-6.94H489.44V240h10.34V194.72a21.48,21.48,0,0,1,1.86-8.64,27.06,27.06,0,0,1,4.92-7.46,22.8,22.8,0,0,1,7.11-5.08,19.71,19.71,0,0,1,8.81-2,22,22,0,0,1,8.65,1.87,23,23,0,0,1,12,12.54,23.78,23.78,0,0,1,1.86,9v45.24H555.7l-.34-45.24a35.37,35.37,0,0,0-2.54-13.22,39,39,0,0,0-7.12-10.84,34.52,34.52,0,0,0-10.51-7.29,30.11,30.11,0,0,0-12.71-2.71,22.38,22.38,0,0,0-6.77.68"/></g><g id="use4003"><path id="SVGID-5" data-name="SVGID" class="cls-1" d="M467.07,167.44a43.72,43.72,0,0,0-13.05,9,7.22,7.22,0,0,0-1.52,2.37v-14.4H442.33v75.4H452.5V205.57a32.53,32.53,0,0,1,2.37-12,29.69,29.69,0,0,1,6.61-9.82,27.08,27.08,0,0,1,9.66-6.61,25.45,25.45,0,0,1,11.69-2.38v-10.5a40.83,40.83,0,0,0-15.76,3.22"/></g><g id="use3989"><path id="SVGID-6" data-name="SVGID" class="cls-1" d="M373,180.15a30.11,30.11,0,0,1,42.36-.34l.34.34a31.21,31.21,0,0,1,5.59,8.3H367.26a40.26,40.26,0,0,1,5.77-8.3m5.76-16.27a40.22,40.22,0,0,0-13.05,8.81,42.25,42.25,0,0,0,0,58.63,40.22,40.22,0,0,0,13.05,8.81,40.64,40.64,0,0,0,31.52,0,44.44,44.44,0,0,0,12.87-8.81,42.54,42.54,0,0,0,8.65-13.22l.34-1.18H420.81a29.43,29.43,0,0,1-5.08,7,30.13,30.13,0,0,1-42.37.34l-.33-.34a33.7,33.7,0,0,1-6.44-9.83A27.27,27.27,0,0,1,364.38,199h70.33a39.64,39.64,0,0,0-3-13.05A40.66,40.66,0,0,0,423,172.69a41.34,41.34,0,0,0-12.87-8.81,40.22,40.22,0,0,0-31.35,0"/></g><path id="use3975" class="cls-1" d="M295.59,230.81a31.79,31.79,0,0,1-16.27-16.6A31.45,31.45,0,0,1,277,202.35a32.33,32.33,0,0,1,2.37-12,31.46,31.46,0,0,1,16.27-16.43,25.42,25.42,0,0,1,11.69-2.38A30.61,30.61,0,0,1,319,173.88a31.34,31.34,0,0,1,9.66,6.61,32,32,0,0,1,6.44,9.82,33.21,33.21,0,0,1,2.37,12,28.64,28.64,0,0,1-2.37,11.86,32.08,32.08,0,0,1-6.44,9.83,31.48,31.48,0,0,1-9.66,6.6A30.61,30.61,0,0,1,307.28,233a27.51,27.51,0,0,1-11.69-2.21m-4.07-66.76a41.39,41.39,0,0,0-12.88,8.81,46.1,46.1,0,0,0-8.81,13.22,43.87,43.87,0,0,0-3.05,16.27v68h10.33V227.76a31.41,31.41,0,0,0,13.05,11.36,36.11,36.11,0,0,0,17.29,4.57A37.87,37.87,0,0,0,323,240.3a41.36,41.36,0,0,0,21.69-22,42.41,42.41,0,0,0,0-32.19,41.27,41.27,0,0,0-8.81-13.22A39.61,39.61,0,0,0,323,164.05a40.64,40.64,0,0,0-31.52,0"/><path id="use3961" class="cls-1" d="M207.3,230.64a28.77,28.77,0,0,1-9.66-6.6,30.52,30.52,0,0,1-9-21.69,32.53,32.53,0,0,1,2.37-12,28.05,28.05,0,0,1,6.61-9.82,29.65,29.65,0,0,1,33-6.61,28.8,28.8,0,0,1,9.66,6.61,32,32,0,0,1,8.81,22,31.46,31.46,0,0,1-2.37,11.87,32,32,0,0,1-6.44,9.83,31.48,31.48,0,0,1-9.66,6.6A25.3,25.3,0,0,1,219,233.19a35.21,35.21,0,0,1-11.69-2.55m-4.07-66.76a41.5,41.5,0,0,0-12.88,8.81,46.51,46.51,0,0,0-8.81,13.22,44.06,44.06,0,0,0,0,32.19,43.21,43.21,0,0,0,8.81,13.22,39.61,39.61,0,0,0,12.88,8.81,40.64,40.64,0,0,0,31.52,0,41.39,41.39,0,0,0,12.88-8.81,40.94,40.94,0,0,0,8.81-13.22,42.32,42.32,0,0,0,0-32.19,40.94,40.94,0,0,0-8.81-13.22,39.51,39.51,0,0,0-12.88-8.81,40.64,40.64,0,0,0-31.52,0"/><path id="use3945" class="cls-1" d="M67.5,161.34c0,69.3,55.41,125.39,124,125.39a121.74,121.74,0,0,0,54.9-13,.37.37,0,0,0,.17-.51c0-.17-.17-.17-.34-.17a106.3,106.3,0,0,1-41,7.79c-62.36,0-112.86-51.17-112.86-114.38S143.08,52,205.27,52a112.73,112.73,0,0,1,101.16,63.21.38.38,0,0,0,.51.17c.17,0,.17-.17.17-.34a123.92,123.92,0,0,0-115.4-78.8C122.91,36.11,67.5,92.2,67.5,161.34"/></svg>