<?xml version="1.0" encoding="UTF-8"?><svg id="Layer_2" xmlns="http://www.w3.org/2000/svg" viewBox="0 0 728 300.01"><defs><style>.cls-1{font-family:Arial-ItalicMT, Arial;}.cls-1,.cls-2{fill:#0e4590;}.cls-3{fill:#fabd25;}.cls-4{fill:#fff;font-family:Arial-BoldItalicMT, Arial;font-weight:700;}.cls-5{font-size:59.31px;font-style:italic;letter-spacing:0em;}</style></defs><g id="Layer_1-2"><path class="cls-2" d="M398.95,287.62h-179c31-16,45-64,45-64h147l-13,64Z"/><text class="cls-5" transform="translate(265.16 277.69)"><tspan class="cls-4" x="0" y="0">RRD </tspan><tspan class="cls-1" x="147.34" y="0">BROWSER</tspan></text><path id="use4073" class="cls-2" d="M692.05,126.41c-3.05,1.19-5.93,3.05-8.3,5.25-2.37,2.03-4.07,4.58-5.42,7.46-1.36,2.88-1.69,6.1-1.36,9.15.34,3.9,1.86,7.46,4.24,10.51,2.2,2.71,5.08,4.91,8.3,6.27,3.39,1.53,6.95,2.71,10.68,3.56,3.22.85,6.44,2.03,9.49,3.39,2.37,1.02,4.24,2.54,5.76,4.58,1.36,1.86,1.86,4.58,1.86,7.96-.17,3.22-1.69,6.27-3.9,8.64-2.37,2.37-5.93,3.39-10.85,3.39-3.73.17-7.29-.68-10.51-2.54-2.37-1.53-4.24-3.56-5.59-6.1-1.02-2.2-1.53-4.74-1.53-7.12h-10.34c-.17,3.9.68,7.63,2.2,11.18,1.53,3.05,3.56,5.93,6.1,8.3,2.54,2.2,5.59,4.07,8.81,5.25s6.61,1.69,10.17,1.86c3.39,0,6.78-.51,10-1.36,3.05-1.02,5.76-2.54,8.3-4.41,2.37-1.86,4.41-4.41,5.76-7.12,1.53-2.88,2.2-6.27,2.03-9.49.17-4.07-.68-8.13-2.54-11.69-1.86-3.22-4.41-5.93-7.46-7.79-3.22-2.03-6.61-3.73-10.34-4.91l-9.83-3.39c-2.54-.85-4.91-2.03-7.12-3.56-1.86-1.36-3.05-3.39-3.39-5.59-.51-2.71.34-5.59,2.03-7.63,1.69-2.2,3.73-3.9,6.27-4.91,2.03-.68,4.07-1.19,6.27-1.19,2.88,0,5.59.85,8.13,2.37,2.37,1.53,4.24,3.9,5.08,6.61h11.01c-.34-1.86-1.02-3.73-1.86-5.42-1.36-2.2-2.88-4.41-4.58-6.27-2.03-2.2-4.58-3.9-7.29-5.08-3.22-1.36-6.78-2.03-10.34-1.86-3.56-.34-6.95.34-10,1.69"/><g id="use4059"><path id="SVGID" class="cls-2" d="M657.31,128.28v41.52c0,3.05-.68,6.1-1.86,8.98-1.19,2.71-2.71,5.25-4.91,7.29-2.03,2.03-4.58,3.73-7.12,5.08-5.59,2.37-12.03,2.37-17.62,0-2.54-1.19-5.08-2.88-7.12-5.08-2.2-2.03-3.73-4.58-4.91-7.29-1.19-2.88-1.86-5.93-1.86-8.98v-41.52h-10.68v41.35c0,4.58.85,8.98,2.71,13.05,1.69,4.07,4.07,7.63,7.12,10.85,3.05,3.05,6.61,5.59,10.51,7.29,4.07,1.86,8.3,2.71,12.71,2.71s8.81-.85,12.88-2.71c3.9-1.69,7.46-4.24,10.51-7.29,3.05-3.22,5.42-6.78,7.12-10.85,1.69-4.24,2.54-8.64,2.54-13.05v-41.35h-10Z"/></g><g id="use4045"><path id="SVGID-2" class="cls-2" d="M541.74,127.6c-4.74,2.2-9.15,5.08-12.88,8.81-3.73,3.9-6.61,8.3-8.81,13.22-4.07,10.34-4.07,21.86,0,32.2,2.03,4.91,5.08,9.32,8.81,13.22,3.73,3.73,8.13,6.78,12.88,8.81,10,4.24,21.35,4.24,31.52,0,9.83-4.24,17.45-12.2,21.52-22.03l.51-1.19h-11.35c-1.36,2.54-3.05,4.91-5.08,6.95-2.71,2.71-6.1,5.08-9.66,6.61-3.73,1.69-7.63,2.54-11.69,2.37-7.96,0-15.76-3.22-21.35-8.98-2.88-2.88-5.08-6.27-6.61-9.83-1.53-3.73-2.37-7.79-2.37-11.86s.85-8.3,2.37-12.03,3.73-7.12,6.61-9.83c8.64-8.81,21.69-11.52,33.04-6.61,3.56,1.53,6.95,3.73,9.66,6.61,1.86,2.03,3.56,4.41,4.91,6.78h11.35l-.51-1.02c-3.9-9.83-11.69-17.79-21.52-22.03-9.83-4.41-21.18-4.41-31.35-.17"/></g><g id="use4031"><path id="SVGID-3" class="cls-2" d="M498.53,203.68h10.34v-75.41h-10.34v75.41ZM499.55,99.98c-2.54,2.37-2.54,6.44-.17,8.98,1.19,1.19,2.88,1.86,4.58,1.86s3.22-.68,4.41-1.86c2.37-2.54,2.37-6.44,0-8.98-1.19-1.19-2.71-1.86-4.41-1.86s-3.22.68-4.41,1.86"/></g><path id="path3956" class="cls-3" d="M475.66,149.46c-2.2-5.59-6.61-10-12.03-12.54-2.71-1.19-5.59-1.86-8.64-1.86s-6.1.68-8.81,2.03c-2.71,1.19-5.08,3.05-7.12,5.08-1.02,1.19-2.03,2.37-2.88,3.56v.51c0,15.42,12.54,27.96,27.96,27.96,4.58,0,9.15-1.19,13.22-3.39v-12.71c0-2.71-.51-5.76-1.69-8.64"/><g id="use4017"><path id="SVGID-4" class="cls-2" d="M448.21,125.23c-2.2.51-4.41,1.19-6.44,2.2-2.03.85-3.9,2.03-5.59,3.39-1.53,1.19-2.88,2.71-3.9,4.41v-6.95h-10.34v75.41h10.34v-45.24c0-3.05.68-5.93,1.86-8.64,1.19-2.71,2.88-5.25,4.91-7.46,2.03-2.2,4.58-3.9,7.12-5.08,2.71-1.36,5.76-2.03,8.81-2.03,2.88,0,5.93.68,8.64,1.86,5.42,2.37,9.83,6.95,12.03,12.54,1.19,2.88,1.86,5.93,1.86,8.98v45.24h10.68l-.34-45.24c0-4.58-.85-8.98-2.54-13.22-1.69-4.07-4.24-7.63-7.12-10.85-3.05-3.05-6.61-5.59-10.51-7.29-4.07-1.86-8.3-2.71-12.71-2.71-2.37-.17-4.58.17-6.78.68"/></g><g id="use4003"><path id="SVGID-5" class="cls-2" d="M399.57,131.16c-4.91,2.2-9.32,5.25-13.05,8.98-.68.68-1.19,1.53-1.53,2.37v-14.4h-10.17v75.41h10.17v-34.23c0-4.07.85-8.3,2.37-12.03,1.53-3.73,3.73-6.95,6.61-9.83,2.71-2.88,5.93-5.08,9.66-6.61,3.73-1.69,7.63-2.54,11.69-2.37v-10.51c-5.59,0-10.85,1.19-15.76,3.22"/></g><g id="use3989"><path id="SVGID-6" class="cls-2" d="M305.53,143.87c11.52-11.69,30.5-11.86,42.36-.34l.34.34c2.2,2.37,4.24,5.25,5.59,8.3h-54.06c1.53-3.05,3.56-5.76,5.76-8.3M311.29,127.6c-4.91,2.03-9.32,5.08-13.05,8.81-3.73,3.9-6.61,8.3-8.64,13.22-4.24,10.34-4.24,21.86,0,32.2,2.03,4.91,4.91,9.32,8.64,13.22,3.73,3.73,8.13,6.78,13.05,8.81,10,4.24,21.35,4.24,31.52,0,4.74-2.2,9.15-5.08,12.88-8.81,3.73-3.9,6.61-8.3,8.64-13.22l.34-1.19h-11.35c-1.36,2.54-3.05,4.91-5.08,6.95-11.52,11.69-30.5,11.86-42.36.34l-.34-.34c-2.71-2.88-4.91-6.27-6.44-9.83-2.2-4.74-2.88-10-2.2-15.08h70.32c-.17-4.41-1.36-8.81-3.05-13.05-2.03-4.91-4.91-9.49-8.64-13.22-3.73-3.73-8.13-6.78-12.88-8.81-10-4.24-21.35-4.24-31.35,0"/></g><path id="use3975" class="cls-2" d="M228.09,194.53c-7.29-3.22-13.05-9.15-16.27-16.61-1.53-3.73-2.37-7.79-2.37-11.86s.85-8.3,2.37-12.03c3.05-7.29,8.98-13.22,16.27-16.44,3.73-1.69,7.63-2.54,11.69-2.37,4.07,0,7.96.85,11.69,2.37,3.56,1.53,6.95,3.9,9.66,6.61,2.71,2.88,4.91,6.1,6.44,9.83,1.53,3.9,2.37,7.96,2.37,12.03s-.68,8.13-2.37,11.86c-1.53,3.73-3.73,6.95-6.44,9.83-2.71,2.71-6.1,5.08-9.66,6.61-3.73,1.53-7.63,2.37-11.69,2.37-4.07.17-7.96-.68-11.69-2.2M224.02,127.77c-4.74,2.03-9.15,5.08-12.88,8.81-3.73,3.9-6.61,8.3-8.81,13.22-2.03,5.08-3.05,10.68-3.05,16.27v67.95h10.34v-42.53c3.22,4.91,7.63,8.81,13.05,11.35,5.25,2.88,11.18,4.58,17.28,4.58,5.42,0,10.68-1.19,15.59-3.39,4.74-2.03,9.15-5.08,12.88-8.81s6.78-8.3,8.81-13.22c4.24-10.34,4.24-21.86,0-32.2-2.03-4.91-5.08-9.49-8.81-13.22-3.73-3.73-7.96-6.78-12.88-8.81-10.17-4.24-21.52-4.24-31.52,0"/><path id="use3961" class="cls-2" d="M139.8,194.36c-3.56-1.53-6.95-3.73-9.66-6.61-2.88-2.88-5.08-6.27-6.61-9.83-1.53-3.73-2.37-7.79-2.37-11.86s.85-8.3,2.37-12.03c1.53-3.73,3.73-7.12,6.61-9.83,8.64-8.81,21.69-11.52,33.04-6.61,3.56,1.53,6.95,3.73,9.66,6.61,5.59,5.93,8.81,13.73,8.81,22.03,0,4.07-.85,8.13-2.37,11.86s-3.73,6.95-6.44,9.83c-2.71,2.71-6.1,5.08-9.66,6.61-3.73,1.69-7.63,2.54-11.69,2.37-3.9-.17-7.96-1.02-11.69-2.54M135.73,127.6c-4.74,2.03-9.15,5.08-12.88,8.81-3.73,3.9-6.61,8.3-8.81,13.22-4.07,10.34-4.07,21.86,0,32.2,2.03,4.91,5.08,9.32,8.81,13.22,3.73,3.73,7.96,6.78,12.88,8.81,10,4.24,21.35,4.24,31.52,0,4.74-2.03,9.15-5.08,12.88-8.81s6.78-8.3,8.81-13.22c4.24-10.34,4.24-21.86,0-32.2-2.03-4.91-5.08-9.49-8.81-13.22-3.73-3.73-7.96-6.78-12.88-8.81-10-4.24-21.35-4.24-31.52,0"/><path id="use3945" class="cls-2" d="M0,125.06c0,69.31,55.41,125.4,124.04,125.4,18.98,0,37.79-4.41,54.9-13.05,0,0,.34-.17.17-.51,0-.17-.17-.17-.34-.17-13.05,5.25-26.94,7.96-41.01,7.79-62.36,0-112.86-51.18-112.86-114.38S75.58,15.76,137.77,15.76c43.04,0,82.19,24.57,101.16,63.21,0,0,.17.34.51.17.17,0,.17-.17.17-.34C221.14,31.35,175.22,0,124.21,0,55.41-.17,0,55.92,0,125.06"/></g></svg>