<svg width="33" height="33" viewBox="0 0 33 33" fill="none" xmlns="http://www.w3.org/2000/svg">
   <rect width="33" height="33" fill="#ffffff"/>
   <path d="M25.9957 16.1848C25.9114 13.7169 24.87 11.3786 23.0917 9.66443C21.3135 7.95029 18.9379 6.99477 16.4675 7.00002C11.2459 6.99517 6.98634 11.2947 7.00003 16.5091C7.01375 21.7367 11.2966 26.0184 16.4934 25.9999C17.7673 25.9965 19.0275 25.738 20.1996 25.2395C21.3718 24.741 22.4321 24.0128 23.3179 23.0978C24.2037 22.1828 24.8971 21.0996 25.357 19.9123C25.8169 18.7249 26.0341 17.4575 25.9957 16.1848ZM21.4064 13.6616C20.6983 14.381 19.9991 15.0914 19.3194 15.7819C18.6086 15.0826 17.8994 14.3848 17.2133 13.7097C17.9001 13.0001 18.5935 12.2838 19.2848 11.5696C20.0183 12.2929 20.7206 12.9853 21.4064 13.6616ZM15.7983 13.6973C15.1054 14.4002 14.4051 15.1105 13.7064 15.8192C12.9944 15.11 12.2931 14.4115 11.6102 13.7312C12.3119 13.0302 13.0226 12.3202 13.7182 11.6253C14.3999 12.3044 15.1061 13.0078 15.7983 13.6973ZM11.6003 19.2996C12.3082 18.5982 13.0158 17.8972 13.7042 17.2152L15.7896 19.2876C15.1061 19.9763 14.4039 20.684 13.717 21.3762C13.0106 20.6831 12.2992 19.9852 11.6003 19.2996ZM17.2061 19.3015C17.9027 18.611 18.6141 17.9059 19.3024 17.2236C19.9755 17.8912 20.6885 18.5983 21.3934 19.2974C20.7029 20.0001 20.0042 20.7111 19.3134 21.4142C18.5971 20.696 17.8923 19.9894 17.2061 19.3015ZM20.5861 8.89365C20.1511 9.33001 19.7118 9.77064 19.2898 10.194C18.52 9.43126 17.7334 8.65182 16.9542 7.87973C17.5341 7.73231 19.8617 8.38329 20.5861 8.89365ZM16.6561 8.89501L16.558 8.80545L16.5652 8.79818C16.5944 8.82911 16.6254 8.86223 16.6561 8.89501ZM15.9428 7.8441C15.1837 8.60251 14.3961 9.38945 13.6239 10.161C13.2433 9.78308 12.8129 9.35556 12.371 8.91666C13.4872 8.26422 14.7186 7.96701 15.9428 7.8441ZM8.8885 12.3939C9.33581 12.8435 9.77624 13.2861 10.2024 13.7144C9.42173 14.4892 8.62531 15.2796 7.84665 16.0524C7.93874 14.7798 8.25297 13.5344 8.8885 12.3939ZM10.1615 19.3057C9.76344 19.7108 9.33295 20.1488 8.89099 20.5986C8.25196 19.4584 7.95142 18.2336 7.83792 16.9859C8.60785 17.7546 9.38986 18.5354 10.1615 19.3057ZM12.3923 24.095C12.8458 23.6425 13.2773 23.2119 13.6781 22.812C14.4604 23.5798 15.2556 24.3603 16.0639 25.1536C14.7626 25.0398 13.5224 24.7372 12.3923 24.095ZM16.8538 25.1376C17.6794 24.3095 18.471 23.5154 19.2287 22.7554C19.7158 23.2249 20.1584 23.6516 20.6011 24.0785C19.9661 24.57 17.8797 25.1722 16.8538 25.1376ZM24.1137 20.588C23.6765 20.1464 23.2436 19.7092 22.8313 19.2928C23.5845 18.5401 24.3715 17.7537 25.1514 16.9743C25.0528 18.2357 24.7344 19.4624 24.1137 20.588ZM22.792 13.7031C23.2056 13.2836 23.6382 12.8449 24.0898 12.3868C24.7695 13.5396 25.0374 14.8076 25.1723 16.0824C24.3889 15.2993 23.5901 14.5009 22.792 13.7031Z" fill="#0a4393"/>
</svg>
