<svg width="33" height="33" viewBox="0 0 33 33" fill="none" xmlns="http://www.w3.org/2000/svg">
   <rect width="33" height="33" fill="#ffffff"/>
   <path d="M24.9996 9.29237C24.9996 8.73642 24.719 8.46222 24.1524 8.46136C23.525 8.46041 22.8975 8.45503 22.2702 8.46461C22.0832 8.46747 22.0241 8.39715 22.0321 8.22528C22.0401 8.05318 22.0356 7.88031 22.0313 7.7079C22.0227 7.35938 21.8072 7.07434 21.4577 7.03191C21.1352 6.99248 20.8092 6.98963 20.486 7.0234C20.1003 7.06478 19.8872 7.33454 19.8718 7.72087C19.865 7.89314 19.8631 8.06599 19.8689 8.23824C19.8744 8.40256 19.8136 8.46595 19.6372 8.46445C18.7504 8.45689 17.8635 8.4611 16.9767 8.46111C15.7821 8.46112 14.5876 8.46102 13.393 8.46082C13.1496 8.46071 13.1438 8.45456 13.139 8.20854C13.1355 8.03016 13.1417 7.85132 13.131 7.67343C13.1108 7.33649 12.9004 7.07244 12.5613 7.03222C12.2388 6.9927 11.9128 6.98952 11.5895 7.02276C11.198 7.06528 10.9806 7.34778 10.9743 7.73738C10.9716 7.90388 10.9663 8.07077 10.9743 8.23692C10.9824 8.40491 10.9168 8.46617 10.7426 8.464C10.1152 8.45621 9.48747 8.47249 8.8604 8.45748C8.3775 8.44592 7.99473 8.73523 8.00005 9.30386C8.01753 11.1714 8.00653 13.0392 8.00653 14.907C8.00653 17.8334 8.00849 20.7599 8.01241 23.6864C8.01344 23.8681 8.06081 24.0468 8.15016 24.2058C8.28785 24.4399 8.53555 24.5004 8.80771 24.5C11.3718 24.4961 13.9358 24.4954 16.4998 24.4978C19.0579 24.4978 21.6159 24.4977 24.1739 24.4975C24.7297 24.4973 24.9996 24.2343 24.9996 23.6928C25.0001 18.8927 25.0001 14.0925 24.9996 9.29237ZM17.5775 21.0411H15.9188V17.1634C15.6748 17.3493 15.414 17.5127 15.1397 17.6516C14.8356 17.7963 14.5198 17.9158 14.1956 18.0088V16.6832C14.7538 16.5059 15.1873 16.2929 15.496 16.0441C15.805 15.795 16.0527 15.4802 16.2207 15.1233H17.5775L17.5775 21.0411ZM24.3036 11.944C24.3042 12.0748 24.2505 12.1296 24.123 12.1274C24.0506 12.1261 23.9782 12.1292 23.9058 12.1292C21.4385 12.1293 18.9711 12.1293 16.5038 12.1293C14.0183 12.1293 11.5329 12.1292 9.04741 12.1291C8.70416 12.1291 8.70404 12.1284 8.70404 11.785C8.70402 10.9821 8.70786 10.1791 8.70116 9.37622C8.69976 9.20779 8.75345 9.14446 8.92778 9.14648C9.53096 9.15348 10.1342 9.15354 10.7375 9.14668C10.9065 9.14495 10.9814 9.20167 10.9745 9.3733C10.9667 9.56327 10.9695 9.75404 10.9766 9.94414C10.9821 10.1185 11.0548 10.2843 11.1799 10.4077C11.3049 10.5311 11.473 10.6028 11.6499 10.6083C11.9151 10.6161 12.1809 10.615 12.4461 10.6088C12.6201 10.607 12.787 10.5406 12.9134 10.4228C13.0398 10.305 13.1165 10.1445 13.1281 9.97337C13.1421 9.78392 13.1348 9.59299 13.1392 9.40277C13.1448 9.16403 13.1583 9.14942 13.3982 9.14929C14.8882 9.14848 16.3783 9.1483 17.8684 9.14873C18.4535 9.14873 19.0388 9.15451 19.6238 9.14567C19.8061 9.14292 19.8736 9.20894 19.869 9.38283C19.8639 9.57882 19.864 9.7758 19.878 9.97122C19.8891 10.1423 19.9653 10.303 20.0913 10.4212C20.2174 10.5394 20.384 10.6064 20.5579 10.6088C20.8232 10.6151 21.0889 10.6159 21.3541 10.6084C21.531 10.6034 21.6994 10.5321 21.8249 10.4091C21.9504 10.2861 22.0236 10.1205 22.0296 9.94615C22.0375 9.74419 22.0363 9.54175 22.0341 9.33958C22.0326 9.20452 22.0925 9.14774 22.2306 9.14841C22.858 9.15149 23.4854 9.15153 24.1128 9.14856C24.2505 9.14791 24.3045 9.20001 24.3039 9.33892C24.2999 10.2073 24.2998 11.0756 24.3036 11.944Z" fill="#0a4393"/>
</svg>
