<svg width="33" height="33" viewBox="0 0 33 33" fill="none" xmlns="http://www.w3.org/2000/svg">
   <rect width="33" height="33" fill="#ffffff"/>
   <path d="M24.9996 9.29237C24.9996 8.73642 24.719 8.46222 24.1524 8.46136C23.525 8.46041 22.8975 8.45503 22.2702 8.46461C22.0832 8.46747 22.0241 8.39715 22.0321 8.22528C22.0401 8.05318 22.0356 7.88031 22.0313 7.70791C22.0227 7.35938 21.8072 7.07434 21.4577 7.03191C21.1352 6.99248 20.8092 6.98963 20.486 7.0234C20.1003 7.06478 19.8872 7.33454 19.8718 7.72087C19.8649 7.89314 19.8631 8.06599 19.8689 8.23824C19.8744 8.40256 19.8136 8.46595 19.6372 8.46445C18.7504 8.45689 17.8635 8.4611 16.9767 8.46111C15.7821 8.46112 14.5876 8.46102 13.393 8.46082C13.1496 8.46071 13.1438 8.45456 13.139 8.20854C13.1355 8.03016 13.1417 7.85132 13.131 7.67343C13.1108 7.33649 12.9004 7.07244 12.5613 7.03222C12.2388 6.9927 11.9128 6.98952 11.5895 7.02276C11.198 7.06528 10.9806 7.34778 10.9743 7.73738C10.9716 7.90388 10.9663 8.07077 10.9743 8.23692C10.9824 8.40491 10.9168 8.46617 10.7426 8.464C10.1153 8.45621 9.48747 8.47249 8.8604 8.45748C8.3775 8.44592 7.99473 8.73523 8.00005 9.30386C8.01753 11.1714 8.00653 13.0392 8.00653 14.907C8.00653 17.8334 8.00849 20.7599 8.01241 23.6863C8.01344 23.8681 8.06081 24.0468 8.15016 24.2058C8.28784 24.4399 8.53555 24.5004 8.80771 24.5C11.3718 24.4961 13.9358 24.4954 16.4998 24.4978C19.0579 24.4978 21.6159 24.4977 24.1739 24.4975C24.7297 24.4973 24.9996 24.2343 24.9996 23.6928C25.0001 18.8927 25.0001 14.0925 24.9996 9.29237ZM22.0365 18.4541C21.2812 19.1897 20.5356 19.9351 19.7775 20.6679C19.6827 20.7623 19.5558 20.8186 19.4213 20.8261C19.3625 20.8133 19.3076 20.7869 19.2612 20.7489C19.2148 20.711 19.1783 20.6627 19.1547 20.6081C19.1412 20.5499 19.1406 20.4896 19.153 20.4312C19.1654 20.3728 19.1904 20.3178 19.2264 20.2698C19.4056 20.069 19.595 19.8771 19.7938 19.695C20.0751 19.4172 20.3565 19.1395 20.638 18.862C20.6879 18.8126 20.7331 18.7588 20.8144 18.6697H12.1918C12.2745 18.7597 12.32 18.8135 12.3699 18.8629C12.8299 19.3177 13.293 19.7696 13.7503 20.2272C13.9738 20.4508 13.9066 20.7751 13.6178 20.8222C13.4897 20.8297 13.3639 20.7868 13.2679 20.7029C12.9815 20.4485 12.7166 20.1704 12.4436 19.9013C11.9487 19.4135 11.4564 18.9231 10.9572 18.4397C10.8497 18.3356 10.8513 18.269 10.9579 18.165C11.7123 17.4285 12.4612 16.6864 13.2124 15.9467C13.2537 15.9035 13.2996 15.8646 13.3492 15.8309C13.4149 15.7872 13.4939 15.7674 13.5727 15.7746C13.6516 15.7818 13.7255 15.8157 13.7819 15.8706C13.8407 15.9274 13.8762 16.0036 13.8819 16.0845C13.8875 16.1655 13.8629 16.2457 13.8126 16.31C13.7684 16.3665 13.7197 16.4194 13.6671 16.4683C13.2325 16.8979 12.7977 17.3271 12.3626 17.7561C12.314 17.8043 12.2724 17.8593 12.2021 17.9403H20.794C20.7511 17.88 20.7049 17.822 20.6556 17.7667C20.2175 17.3322 19.7785 16.8987 19.3386 16.4661C19.2856 16.4175 19.2368 16.3646 19.1928 16.308C19.1445 16.2495 19.1188 16.176 19.1204 16.1006C19.122 16.0252 19.1507 15.9528 19.2015 15.8964C19.2505 15.8346 19.3205 15.7924 19.3986 15.7776C19.4767 15.7628 19.5576 15.7764 19.6263 15.8159C19.6932 15.8558 19.7543 15.9046 19.8078 15.9609C20.5511 16.6915 21.2906 17.4261 22.0378 18.1528C22.1581 18.2699 22.1543 18.3395 22.0365 18.4541ZM24.3037 11.944C24.3042 12.0748 24.2505 12.1296 24.123 12.1274C24.0506 12.1261 23.9782 12.1292 23.9058 12.1292C21.4385 12.1293 18.9711 12.1293 16.5038 12.1293C14.0183 12.1293 11.5329 12.1292 9.04741 12.1292C8.70416 12.1291 8.70405 12.1284 8.70404 11.785C8.70402 10.9821 8.70785 10.1791 8.70116 9.37622C8.69976 9.2078 8.75345 9.14446 8.92778 9.14649C9.53096 9.15348 10.1342 9.15354 10.7375 9.14668C10.9065 9.14495 10.9814 9.20167 10.9745 9.3733C10.9667 9.56328 10.9695 9.75404 10.9766 9.94414C10.9821 10.1185 11.0548 10.2843 11.1799 10.4077C11.3049 10.5311 11.473 10.6028 11.6499 10.6083C11.9151 10.6161 12.1809 10.615 12.4461 10.6088C12.6201 10.607 12.787 10.5406 12.9134 10.4228C13.0398 10.305 13.1165 10.1445 13.1281 9.97337C13.1421 9.78393 13.1348 9.59299 13.1392 9.40277C13.1448 9.16403 13.1583 9.14943 13.3982 9.1493C14.8882 9.14849 16.3783 9.1483 17.8684 9.14873C18.4535 9.14873 19.0388 9.15451 19.6238 9.14567C19.8061 9.14292 19.8736 9.20895 19.869 9.38283C19.8639 9.57882 19.864 9.7758 19.878 9.97122C19.8891 10.1423 19.9653 10.303 20.0913 10.4212C20.2174 10.5394 20.384 10.6064 20.5579 10.6088C20.8232 10.6151 21.0889 10.6159 21.3541 10.6084C21.531 10.6034 21.6994 10.5321 21.8249 10.4091C21.9504 10.2861 22.0236 10.1205 22.0296 9.94615C22.0375 9.74419 22.0363 9.54175 22.0341 9.33958C22.0326 9.20452 22.0925 9.14774 22.2306 9.14841C22.858 9.15149 23.4854 9.15153 24.1128 9.14856C24.2505 9.14791 24.3045 9.20002 24.3039 9.33892C24.2999 10.2073 24.2998 11.0756 24.3037 11.944Z" fill="#0a4393"/>
</svg>