<svg width="88" height="33" viewBox="0 0 88 33" fill="none" xmlns="http://www.w3.org/2000/svg">
<path d="M85.5742 27.4202H86.0633V29.112H86.0837C86.1666 28.9679 86.2862 28.8484 86.4302 28.7655C86.5824 28.669 86.7596 28.6194 86.9398 28.6228C87.2863 28.6228 87.8569 28.847 87.8569 29.7642V31.3744H87.3882V29.8253C87.3882 29.3973 87.2251 29.0304 86.7563 29.0304C86.6111 29.0372 86.4713 29.0875 86.355 29.1748C86.2387 29.262 86.1513 29.3821 86.1041 29.5196C86.0824 29.5926 86.0688 29.6678 86.0633 29.7438V31.3744H85.5742V27.4202ZM84.3105 28.0317V28.6839H85.0238V29.0508H84.3105V30.4979C84.3105 30.8241 84.4124 31.0279 84.6773 31.0279C84.7743 31.0344 84.8715 31.0205 84.9627 30.9871L85.0034 31.3744C84.8643 31.4146 84.7203 31.4352 84.5754 31.4355C84.3728 31.4394 84.1763 31.3666 84.0251 31.2317C83.8844 31.0218 83.8196 30.7701 83.8417 30.5183V29.0508H83.434V28.6839H83.8417V28.1744L84.3105 28.0317ZM81.7831 29.5196C81.7831 29.1935 81.7627 28.9285 81.7423 28.6839H82.1703V29.2139H82.1907C82.243 29.0513 82.3428 28.9081 82.4772 28.8028C82.6116 28.6974 82.7745 28.6347 82.9448 28.6228H83.0875V29.0916H82.9245C82.7577 29.0959 82.598 29.1601 82.4745 29.2723C82.3511 29.3846 82.2721 29.5374 82.2519 29.703C82.2519 29.7846 82.2315 29.8661 82.2315 29.9272V31.354H81.7627L81.7831 29.5196ZM80.9882 30.7221C80.9814 30.9404 80.9951 31.1587 81.0289 31.3744H80.6009L80.5601 31.0279H80.5398C80.4472 31.157 80.3246 31.2616 80.1826 31.3326C80.0405 31.4036 79.8833 31.439 79.7245 31.4355C79.6178 31.4436 79.5107 31.4295 79.4097 31.3943C79.3087 31.359 79.2161 31.3033 79.1377 31.2306C79.0592 31.1579 78.9966 31.0698 78.9538 30.9718C78.911 30.8737 78.8888 30.768 78.8888 30.661C78.8888 30.0088 79.4799 29.6623 80.5194 29.6623V29.6011C80.53 29.5183 80.5215 29.4342 80.4945 29.3551C80.4675 29.2761 80.4228 29.2043 80.3637 29.1453C80.3047 29.0863 80.2329 29.0415 80.1539 29.0146C80.0749 28.9876 79.9907 28.9791 79.9079 28.9897C79.6555 28.9875 79.4077 29.0583 79.1945 29.1935L79.0926 28.8674C79.3544 28.7035 79.6607 28.6251 79.9691 28.6432C80.8047 28.6432 81.0085 29.1935 81.0085 29.7438V30.7221H80.9882ZM80.5194 30.0088C79.9691 29.9884 79.378 30.0903 79.378 30.6202C79.3735 30.6779 79.3805 30.7358 79.3986 30.7908C79.4168 30.8457 79.4456 30.8964 79.4836 30.94C79.5215 30.9837 79.5678 31.0193 79.6196 31.0449C79.6715 31.0705 79.7279 31.0855 79.7856 31.089H79.8468C79.9896 31.0959 80.1307 31.0558 80.2485 30.9748C80.3663 30.8938 80.4543 30.7764 80.499 30.6406C80.5245 30.5899 80.5384 30.5343 80.5398 30.4776V30.0088H80.5194ZM78.3181 29.6215H76.871V30.9871H78.5015V31.3948H76.3818V27.6444H78.3996V28.0521H76.8506V29.2342H78.2977V29.6215H78.3181ZM72.1015 29.4177C72.1083 29.1724 72.0947 28.927 72.0608 28.6839H72.5092V29.112H72.5296C72.6213 28.9573 72.753 28.8303 72.9108 28.7442C73.0686 28.6581 73.2467 28.6162 73.4264 28.6228C73.7933 28.6228 74.364 28.847 74.364 29.7642V31.3744H73.8952V29.8253C73.8952 29.3973 73.7321 29.0304 73.2633 29.0304C73.1163 29.0303 72.9732 29.078 72.8556 29.1662C72.738 29.2544 72.6522 29.3784 72.6111 29.5196C72.5894 29.5926 72.5758 29.6678 72.5703 29.7438V31.3744H72.0812L72.1015 29.4177ZM71.4901 30.0088C71.4901 31.0075 70.7971 31.4355 70.1449 31.4355C69.9693 31.4297 69.7966 31.389 69.6368 31.316C69.477 31.2431 69.3332 31.1391 69.2139 31.0102C69.0945 30.8814 69.0018 30.7301 68.9412 30.5652C68.8806 30.4003 68.8533 30.2251 68.8608 30.0495C68.8608 29.1935 69.4519 28.6228 70.1856 28.6228C70.9194 28.6228 71.4901 29.1731 71.4901 30.0088ZM69.3499 30.0292C69.3499 30.6202 69.6964 31.0686 70.1652 31.0686C70.634 31.0686 70.9805 30.6406 70.9805 30.0088C70.9805 29.3769 70.7563 28.9897 70.1652 28.9897C69.5742 28.9897 69.3499 29.5196 69.3499 30.0292ZM65.5996 30.8852C65.7963 31.0046 66.0218 31.068 66.2519 31.0686C66.5984 31.0686 66.7818 30.9056 66.7818 30.661C66.7818 30.4368 66.6391 30.3145 66.2926 30.1718C65.9461 30.0292 65.5589 29.7438 65.5589 29.4177C65.5845 29.1944 65.6929 28.9889 65.8627 28.8417C66.0325 28.6945 66.2514 28.6164 66.4761 28.6228C66.7097 28.626 66.9395 28.6817 67.1487 28.7858L67.0264 29.1323C66.8622 29.0267 66.6713 28.9701 66.4761 28.9693C66.1907 28.9693 66.0276 29.1323 66.0276 29.3362C66.0276 29.54 66.1907 29.6623 66.5372 29.805C66.8837 29.9476 67.2302 30.2126 67.2302 30.5999C67.2302 30.9871 66.8633 31.4151 66.2315 31.4151C65.9688 31.4174 65.7097 31.3543 65.4773 31.2317L65.5996 30.8852ZM63.1538 30.1311C63.1538 30.7833 63.5614 31.0483 64.071 31.0483C64.3294 31.0522 64.586 31.0037 64.8251 30.9056L64.9066 31.2521C64.6248 31.3765 64.3174 31.4324 64.0098 31.4151C63.1742 31.4151 62.685 30.8648 62.685 30.0495C62.685 29.2342 63.1538 28.6024 63.9487 28.6024C64.7436 28.6024 65.0697 29.3769 65.0697 29.8661C65.074 29.9414 65.0671 30.017 65.0493 30.0903H63.1538V30.1311ZM64.5805 29.7642C64.5805 29.4585 64.4378 28.9693 63.9079 28.9693C63.378 28.9693 63.1945 29.4177 63.1538 29.7642H64.5805ZM60.5041 28.6839L61.0748 30.2737C61.1541 30.4506 61.2156 30.635 61.2582 30.8241H61.2786C61.3236 30.638 61.378 30.4543 61.4417 30.2737L61.9716 28.7043H62.5015L61.7678 30.6202C61.4213 31.5374 61.1767 32.0062 60.8506 32.312C60.6767 32.4651 60.466 32.5705 60.2391 32.6177L60.1168 32.21C60.266 32.1531 60.404 32.0703 60.5245 31.9655C60.71 31.8246 60.8514 31.6337 60.9321 31.4151C60.9586 31.3799 60.9729 31.337 60.9729 31.2929C60.9729 31.2487 60.9586 31.2058 60.9321 31.1706L59.9334 28.7043L60.5041 28.6839ZM57.7933 30.1311C57.8136 30.7833 58.2213 31.0483 58.7105 31.0483C58.9623 31.0522 59.2122 31.0036 59.4442 30.9056L59.5461 31.2521C59.2643 31.3765 58.9569 31.4324 58.6493 31.4151C57.8136 31.4151 57.3245 30.8648 57.3245 30.0495C57.3245 29.2342 57.7933 28.6024 58.5882 28.6024C59.3831 28.6024 59.7092 29.3769 59.7092 29.8661C59.7092 29.968 59.6888 30.0292 59.6888 30.0903H57.7933V30.1311ZM59.22 29.7642C59.2404 29.4585 59.0977 28.9693 58.5474 28.9693C57.9971 28.9693 57.834 29.4177 57.8136 29.7642H59.22ZM54.0837 30.8852C54.2804 31.0046 54.5059 31.068 54.7359 31.0686C55.0824 31.0686 55.2455 30.9056 55.2455 30.661C55.2455 30.4368 55.1028 30.3145 54.7563 30.1718C54.4098 30.0292 54.0429 29.7438 54.0429 29.4177C54.0685 29.1944 54.177 28.9889 54.3468 28.8417C54.5166 28.6945 54.7355 28.6164 54.9601 28.6228C55.1872 28.6261 55.4105 28.6819 55.6124 28.7858L55.5105 29.1323C55.3451 29.0294 55.1549 28.973 54.9601 28.9693C54.6748 28.9693 54.5117 29.1323 54.5117 29.3362C54.5117 29.54 54.6748 29.6623 55.0213 29.805C55.3678 29.9476 55.7347 30.2126 55.7347 30.5999C55.7347 30.9871 55.3678 31.4151 54.7359 31.4151C54.4732 31.4174 54.2141 31.3543 53.9818 31.2317L54.0837 30.8852ZM54.0022 27.5222C53.877 27.9761 53.6991 28.4139 53.4722 28.8266L53.1665 28.8674C53.3039 28.4402 53.4128 28.0045 53.4926 27.5629L54.0022 27.5222ZM51.0264 30.1311C51.0264 30.7833 51.434 31.0483 51.9436 31.0483C52.1954 31.0522 52.4453 31.0036 52.6773 30.9056L52.7792 31.2521C52.4974 31.3765 52.1901 31.4324 51.8824 31.4151C51.0468 31.4151 50.5576 30.8648 50.5576 30.0495C50.5576 29.2342 51.0264 28.6024 51.8213 28.6024C52.6162 28.6024 52.9423 29.3769 52.9423 29.8661C52.9466 29.9414 52.9397 30.017 52.9219 30.0903H51.0264V30.1311ZM52.4531 29.7642C52.4735 29.4585 52.3308 28.9693 51.7805 28.9693C51.2302 28.9693 51.0671 29.4177 51.0468 29.7642H52.4531ZM47.5818 29.5604C47.5818 29.2139 47.5614 28.9285 47.5614 28.6839H47.9894V29.1527H48.0098C48.1054 28.9849 48.2454 28.8467 48.4144 28.7533C48.5834 28.6598 48.7748 28.6146 48.9678 28.6228C49.6404 28.6228 50.1092 29.1731 50.1092 29.9884C50.1092 30.8037 49.5181 31.4355 48.8863 31.4355C48.7216 31.4442 48.5575 31.4092 48.4108 31.3341C48.264 31.2589 48.1397 31.1462 48.0506 31.0075H48.0302V32.475H47.5614L47.5818 29.5604ZM48.0506 30.2737C48.0543 30.3433 48.068 30.4119 48.0914 30.4776C48.1339 30.6401 48.2289 30.7841 48.3615 30.8873C48.4941 30.9904 48.6571 31.047 48.8251 31.0483C49.355 31.0483 49.6404 30.6406 49.6404 30.0088C49.6404 29.3973 49.355 29.01 48.8455 29.01C48.6738 29.0199 48.5098 29.0846 48.3777 29.1947C48.2456 29.3048 48.1524 29.4544 48.1117 29.6215C48.0914 29.6827 48.0914 29.7642 48.071 29.8253V30.2737H48.0506ZM46.9703 30.0088C46.9703 31.0075 46.2773 31.4355 45.6251 31.4355C45.4495 31.4297 45.2768 31.389 45.117 31.3161C44.9572 31.2431 44.8135 31.1391 44.6941 31.0103C44.5747 30.8814 44.482 30.7301 44.4214 30.5652C44.3608 30.4003 44.3335 30.2251 44.341 30.0495C44.341 29.1935 44.9321 28.6228 45.6659 28.6228C46.3996 28.6228 46.9703 29.1731 46.9703 30.0088ZM44.8302 30.0292C44.8302 30.6202 45.1767 31.0686 45.6455 31.0686C46.1143 31.0686 46.4608 30.6406 46.4608 30.0088C46.4608 29.3769 46.2366 28.9897 45.6455 28.9897C45.0544 28.9897 44.8302 29.5196 44.8302 30.0292ZM42.7512 29.5196C42.7512 29.1935 42.7512 28.9285 42.7308 28.6839H43.1589V29.2139H43.1792C43.2281 29.0493 43.3269 28.9039 43.462 28.798C43.5972 28.6921 43.7619 28.6309 43.9334 28.6228H44.0557V29.0916H43.913C43.7453 29.0927 43.5838 29.1558 43.4597 29.2686C43.3356 29.3814 43.2575 29.5362 43.2404 29.703C43.2244 29.7767 43.2175 29.852 43.22 29.9272V31.354H42.7308L42.7512 29.5196ZM41.9563 30.6406C41.9563 30.926 41.9563 31.1706 41.9767 31.3744H41.5487L41.5079 30.926C41.4174 31.0831 41.2865 31.2132 41.1288 31.3027C40.9712 31.3923 40.7924 31.4382 40.6111 31.4355C40.2035 31.4355 39.6939 31.1909 39.6939 30.2534V28.6839H40.1831V30.1718C40.1831 30.6814 40.3461 31.0279 40.7742 31.0279C40.9179 31.0264 41.0577 30.9806 41.1744 30.8967C41.2912 30.8128 41.3792 30.6949 41.4264 30.5591C41.4596 30.4821 41.4736 30.3981 41.4671 30.3145V28.6839H41.9563V30.6406ZM38.9601 29.6215H37.513V30.9871H39.1436V31.3948H37.0238V27.6444H39.0417V28.0521H37.513V29.2342H38.9601V29.6215Z" fill="white"/>
<path d="M83.5767 15.9043C83.2074 16.051 82.8687 16.2653 82.578 16.5362C82.2988 16.7849 82.0764 17.0908 81.9257 17.433C81.7712 17.7779 81.7148 18.1587 81.7627 18.5336C81.8061 18.9954 81.9831 19.4346 82.2722 19.7973C82.5388 20.1263 82.8816 20.3851 83.271 20.5514C83.6837 20.7366 84.1138 20.88 84.555 20.9795C84.9457 21.0848 85.3274 21.2211 85.6964 21.3871C85.9727 21.5049 86.2121 21.695 86.3894 21.9374C86.5611 22.226 86.6395 22.5606 86.6136 22.8954C86.5829 23.2858 86.4171 23.6534 86.1449 23.9349C85.8595 24.2202 85.4315 24.3425 84.8404 24.3425C84.3984 24.3653 83.9594 24.2591 83.5767 24.0368C83.2926 23.8547 83.0608 23.6019 82.9041 23.303C82.7831 23.0339 82.7206 22.7421 82.7206 22.447H81.4773C81.4625 22.9097 81.5532 23.3697 81.7423 23.7922C81.9172 24.1701 82.166 24.509 82.474 24.7891C82.7821 25.0692 83.1432 25.2846 83.5359 25.4228C83.9297 25.5599 84.3421 25.6355 84.7589 25.647C85.165 25.6443 85.5692 25.5895 85.9614 25.4839C86.3201 25.3608 86.6571 25.182 86.9601 24.954C87.2503 24.7221 87.4867 24.43 87.6531 24.0979C87.8348 23.746 87.9193 23.352 87.8977 22.9565C87.9207 22.4691 87.8153 21.9841 87.592 21.5502C87.3757 21.1679 87.0674 20.8457 86.6952 20.6126C86.3078 20.363 85.89 20.1643 85.4519 20.0215L84.2697 19.6139C83.9654 19.5127 83.6772 19.3686 83.4136 19.1858C83.3047 19.1062 83.2125 19.0057 83.1426 18.8903C83.0726 18.7749 83.0262 18.6467 83.006 18.5132C82.9782 18.3518 82.9857 18.1862 83.0279 18.0279C83.0701 17.8695 83.1461 17.7222 83.2506 17.596C83.4432 17.3338 83.704 17.1293 84.0047 17.005C84.2466 16.9165 84.5014 16.8683 84.7589 16.8623C85.105 16.8656 85.4436 16.9643 85.7372 17.1476C86.027 17.3337 86.2431 17.6147 86.3487 17.9425H87.6735C87.6296 17.7157 87.5542 17.4962 87.4493 17.2903C87.2893 17.0227 87.1051 16.7702 86.899 16.5362C86.652 16.2742 86.3536 16.0661 86.0226 15.9247C85.6299 15.7585 85.2052 15.6819 84.7792 15.7005C84.3675 15.6632 83.9531 15.7334 83.5767 15.9043Z" fill="white"/>
<path d="M79.3983 16.1285V21.1221C79.3947 21.4934 79.3186 21.8604 79.1741 22.2024C79.0402 22.5325 78.8389 22.831 78.5831 23.0788C78.3288 23.323 78.0405 23.529 77.727 23.6903C77.2291 23.9112 76.6747 23.971 76.1411 23.8614C75.6076 23.7518 75.1217 23.4782 74.7512 23.0788C74.4954 22.831 74.2941 22.5325 74.1601 22.2024C74.0157 21.8604 73.9395 21.4934 73.9359 21.1221V16.1285H72.6519V21.1018C72.6457 21.6423 72.757 22.1778 72.978 22.6712C73.1805 23.155 73.4707 23.5973 73.834 23.9757C74.1968 24.3441 74.6254 24.6414 75.0977 24.8521C75.5774 25.0709 76.0991 25.1822 76.6264 25.1782C77.1602 25.1822 77.6886 25.071 78.1754 24.8521C78.6477 24.6414 79.0763 24.3441 79.4391 23.9757C80.1882 23.2071 80.6054 22.175 80.6009 21.1018V16.1285H79.3983Z" fill="white"/>
<path d="M65.4977 16.047C64.9231 16.3066 64.3988 16.6653 63.9487 17.1069C63.5063 17.5717 63.1477 18.1096 62.8888 18.6967C62.3996 19.9412 62.3996 21.3248 62.8888 22.5693C63.1402 23.1605 63.4997 23.6996 63.9487 24.1591C64.3934 24.6071 64.919 24.9668 65.4977 25.219C66.0896 25.4716 66.7261 25.6034 67.3697 25.6065C68.0133 25.6097 68.651 25.4841 69.2454 25.2372C69.8397 24.9904 70.3788 24.6272 70.8307 24.169C71.2827 23.7109 71.6386 23.1669 71.8773 22.5693L71.9385 22.4266H70.5729C70.4113 22.7337 70.2052 23.0153 69.9614 23.2623C69.627 23.5973 69.233 23.8669 68.7996 24.0572C68.3601 24.2626 67.8781 24.3604 67.3933 24.3425C66.9148 24.3425 66.4412 24.247 66.0002 24.0615C65.5592 23.876 65.1597 23.6042 64.8251 23.2623C64.4818 22.9202 64.2096 22.5136 64.0242 22.0658C63.8388 21.618 63.7439 21.138 63.7449 20.6534C63.7469 20.1572 63.8438 19.666 64.0302 19.2062C64.2077 18.7599 64.4787 18.3568 64.8251 18.0241C65.3289 17.5042 65.9788 17.1498 66.6886 17.0078C67.3984 16.8658 68.1347 16.943 68.7996 17.2292C69.2371 17.4121 69.6324 17.6826 69.9614 18.0241C70.1876 18.2735 70.3858 18.5468 70.5525 18.8393H71.9181L71.8569 18.7171C71.3787 17.5261 70.4479 16.5733 69.2684 16.0674C68.6745 15.8069 68.0336 15.6708 67.3852 15.6673C66.7367 15.6638 66.0944 15.793 65.4977 16.047Z" fill="white"/>
<path d="M60.3003 25.1986H61.5436V16.1285H60.3003V25.1986ZM60.4226 12.7247C60.2778 12.8659 60.1945 13.0584 60.1906 13.2606C60.1868 13.4628 60.2628 13.6584 60.4022 13.805C60.5493 13.9487 60.7468 14.0292 60.9525 14.0292C61.0513 14.0291 61.1491 14.0092 61.2401 13.9707C61.3312 13.9322 61.4135 13.8758 61.4824 13.805C61.6199 13.6587 61.6964 13.4655 61.6964 13.2648C61.6964 13.0641 61.6199 12.8709 61.4824 12.7247C61.4136 12.6538 61.3312 12.5974 61.2402 12.5588C61.1492 12.5203 61.0513 12.5005 60.9525 12.5005C60.8537 12.5005 60.7558 12.5203 60.6648 12.5588C60.5738 12.5974 60.4914 12.6538 60.4226 12.7247Z" fill="white"/>
<path d="M57.5487 18.6763C57.2764 18.0073 56.7587 17.4677 56.1015 17.168C55.7744 17.0217 55.4204 16.9453 55.0621 16.9438C54.6946 16.9424 54.3318 17.0261 54.0022 17.1884C53.6814 17.3374 53.3911 17.5448 53.1461 17.7999C53.0238 17.9425 52.9015 18.0852 52.7996 18.2279V18.289C52.7975 18.8711 52.9471 19.4437 53.2336 19.9504C53.5201 20.4571 53.9336 20.8805 54.4335 21.1787C54.9334 21.477 55.5023 21.6399 56.0843 21.6515C56.6663 21.663 57.2412 21.5227 57.7525 21.2444V19.7158C57.752 19.3594 57.6828 19.0065 57.5487 18.6763Z" fill="#FFCB2B"/>
<path d="M54.2468 15.7616C53.9791 15.8192 53.7191 15.9081 53.4722 16.0266C53.2301 16.1304 53.0037 16.2676 52.7996 16.4343C52.6123 16.5808 52.4535 16.7604 52.3308 16.9642V16.1285H51.0875V25.1986H52.3308V19.7565C52.3324 19.3982 52.4088 19.0442 52.555 18.7171C52.7011 18.3875 52.9009 18.0844 53.1461 17.8202C53.3896 17.5633 53.6802 17.3557 54.0022 17.2088C54.3318 17.0465 54.6946 16.9628 55.062 16.9642C55.4201 16.9679 55.7738 17.0441 56.1015 17.1884C56.7629 17.4822 57.2825 18.0238 57.5487 18.6967C57.6931 19.0387 57.7693 19.4057 57.7729 19.7769V25.219H59.057L59.0162 19.7769C59.0173 19.2323 58.9135 18.6925 58.7105 18.1871C58.5004 17.7073 58.211 17.2663 57.8544 16.8827C57.4916 16.5142 57.063 16.2169 56.5907 16.0062C56.111 15.7874 55.5893 15.6761 55.062 15.6801C54.7877 15.6658 54.5128 15.6932 54.2468 15.7616Z" fill="white"/>
<path d="M48.3971 16.475C47.8125 16.7365 47.2807 17.1026 46.8277 17.5553C46.7481 17.6372 46.6857 17.7342 46.6442 17.8406V16.1081H45.4213V25.1782H46.6442V21.061C46.6463 20.5649 46.7432 20.0737 46.9296 19.6139C47.1121 19.1702 47.3825 18.7681 47.7245 18.4317C48.0497 18.0858 48.4461 17.8146 48.8863 17.6368C49.3257 17.4314 49.8078 17.3336 50.2926 17.3514V16.0878C49.6414 16.0902 48.9971 16.2218 48.3971 16.475Z" fill="white"/>
<path d="M37.085 18.0037C37.7579 17.3274 38.6704 16.9437 39.6244 16.9361C40.5784 16.9285 41.4969 17.2974 42.1805 17.9629L42.2213 18.0037C42.498 18.2981 42.7251 18.6353 42.8939 19.0024H36.392C36.5802 18.6418 36.8131 18.3062 37.085 18.0037ZM37.778 16.047C37.1903 16.2938 36.657 16.6539 36.2085 17.1069C35.2957 18.0537 34.7856 19.3177 34.7856 20.633C34.7856 21.9482 35.2957 23.2122 36.2085 24.1591C36.8945 24.8502 37.7714 25.3204 38.7266 25.5093C39.6819 25.6982 40.6717 25.597 41.5691 25.219C42.1436 24.9594 42.668 24.6006 43.1181 24.1591C43.561 23.6988 43.9135 23.1595 44.1576 22.5693L44.1984 22.4266H42.8328C42.6712 22.7337 42.4651 23.0153 42.2213 23.2623C41.5484 23.9386 40.6359 24.3222 39.6819 24.3299C38.7279 24.3375 37.8094 23.9685 37.1257 23.303L37.085 23.2623C36.7602 22.9162 36.4981 22.5161 36.3105 22.0801C36.0514 21.513 35.9595 20.8837 36.0455 20.2661H44.5041C44.4719 19.7259 44.3478 19.1951 44.1372 18.6967C43.8981 18.1038 43.5449 17.5636 43.0977 17.1069C42.653 16.6588 42.1274 16.2992 41.5487 16.047C40.9521 15.7948 40.311 15.6648 39.6633 15.6648C39.0156 15.6648 38.3745 15.7948 37.778 16.047Z" fill="white"/>
<path d="M27.7703 24.0979C27.1049 23.806 26.5386 23.3269 26.1405 22.719C25.7425 22.111 25.5298 21.4004 25.5283 20.6737C25.5304 20.1776 25.6272 19.6864 25.8136 19.2266C26.1912 18.3431 26.8908 17.6363 27.7703 17.2495C28.2098 17.0441 28.6919 16.9463 29.1767 16.9642C29.6597 16.9663 30.1375 17.0633 30.5831 17.2495C31.4641 17.6273 32.1601 18.3379 32.5194 19.2266C32.7039 19.687 32.8007 20.1778 32.8047 20.6737C32.8126 21.1642 32.7153 21.6508 32.5194 22.1005C32.1601 22.9892 31.4641 23.6998 30.5831 24.0776C30.1375 24.2638 29.6597 24.3608 29.1767 24.3629C28.6942 24.3778 28.2143 24.2873 27.7703 24.0979ZM27.2812 16.0674C26.7025 16.3196 26.1768 16.6792 25.7321 17.1272C25.2897 17.5921 24.9312 18.1299 24.6722 18.7171C24.4274 19.3402 24.3029 20.0042 24.3054 20.6737V28.847H25.5487V23.7311C25.9338 24.3241 26.4775 24.7972 27.1181 25.0967C27.7539 25.4517 28.4689 25.641 29.1971 25.647C29.844 25.6455 30.4831 25.5065 31.0722 25.2393C31.6509 24.9871 32.1766 24.6275 32.6213 24.1795C33.0747 23.7236 33.4347 23.1835 33.6812 22.5897C34.1907 21.3491 34.1907 19.9576 33.6812 18.7171C33.4347 18.1232 33.0747 17.5831 32.6213 17.1272C32.1803 16.6748 31.6537 16.3145 31.0722 16.0674C30.4721 15.8151 29.8277 15.6852 29.1767 15.6852C28.5257 15.6852 27.8813 15.8151 27.2812 16.0674Z" fill="white"/>
<path d="M17.1512 24.0776C16.7138 23.8946 16.3184 23.6241 15.9894 23.2827C15.6462 22.9406 15.374 22.5339 15.1886 22.0862C15.0032 21.6384 14.9082 21.1584 14.9092 20.6737C14.9113 20.1776 15.0081 19.6864 15.1945 19.2266C15.372 18.7803 15.6431 18.3772 15.9894 18.0444C16.4932 17.5246 17.1431 17.1701 17.8529 17.0282C18.5628 16.8862 19.299 16.9634 19.964 17.2495C20.4014 17.4324 20.7968 17.703 21.1257 18.0444C21.8051 18.7595 22.1845 19.7078 22.1856 20.6941C22.1835 21.1837 22.0866 21.6682 21.9003 22.1209C21.5409 23.0095 20.845 23.7202 19.964 24.0979C19.5245 24.3034 19.0424 24.4012 18.5576 24.3833C18.0748 24.3621 17.5992 24.2587 17.1512 24.0776ZM16.6621 16.047C16.0834 16.2992 15.5577 16.6588 15.113 17.1069C14.6706 17.5717 14.3121 18.1096 14.0531 18.6967C13.564 19.9412 13.564 21.3248 14.0531 22.5693C14.3046 23.1605 14.664 23.6996 15.113 24.1591C15.554 24.6116 16.0806 24.9718 16.6621 25.219C17.2622 25.4712 17.9066 25.6011 18.5576 25.6011C19.2086 25.6011 19.853 25.4712 20.4531 25.219C21.0318 24.9668 21.5575 24.6071 22.0022 24.1591C22.4556 23.7032 22.8156 23.1632 23.0621 22.5693C23.5716 21.3287 23.5716 19.9373 23.0621 18.6967C22.8156 18.1028 22.4556 17.5628 22.0022 17.1069C21.5612 16.6544 21.0346 16.2941 20.4531 16.047C19.853 15.7947 19.2086 15.6648 18.5576 15.6648C17.9066 15.6648 17.2622 15.7947 16.6621 16.047Z" fill="white"/>
<path d="M0.335938 15.7413C0.335938 24.0776 7.00091 30.8241 15.2557 30.8241C17.5495 30.8254 19.8115 30.2878 21.8595 29.2547C21.8649 29.2521 21.8698 29.2484 21.8738 29.2439C21.8778 29.2394 21.8808 29.2342 21.8827 29.2285C21.8846 29.2227 21.8854 29.2167 21.8849 29.2107C21.8844 29.2047 21.8827 29.1989 21.8799 29.1935C21.8799 29.1732 21.8595 29.1732 21.8391 29.1732C20.2731 29.8086 18.5966 30.1272 16.9066 30.1107C9.406 30.1107 3.33212 23.9553 3.33212 16.3528C3.33212 8.75022 9.42638 2.59481 16.9066 2.59481C19.4429 2.59733 21.9276 3.31107 24.0786 4.65496C26.2295 5.99885 27.9604 7.91901 29.0748 10.1974C29.0774 10.2028 29.081 10.2077 29.0855 10.2117C29.09 10.2156 29.0953 10.2187 29.101 10.2206C29.1067 10.2225 29.1128 10.2232 29.1188 10.2227C29.1248 10.2222 29.1306 10.2205 29.1359 10.2177C29.1563 10.2177 29.1563 10.1974 29.1563 10.177C28.0645 7.38435 26.1558 4.98595 23.6795 3.2951C21.2032 1.60426 18.2745 0.699585 15.2761 0.699265C7.00091 0.678883 0.335938 7.42538 0.335938 15.7413Z" fill="white"/>
</svg>
