<svg id="facebook" data-name="facebook" xmlns="http://www.w3.org/2000/svg" viewBox="0 0 1385.32 1416.49">
   <path d="M411.09,747.07H541.62v537.4a19.21,19.21,0,0,0,19.21,19.21H782.16a19.21,19.21,0,0,0,19.21-19.21V749.6H951.44a19.22,19.22,0,0,0,19.08-17l22.79-197.84a19.21,19.21,0,0,0-19.08-21.41H801.38v-124c0-37.38,20.13-56.34,59.83-56.34h113a19.21,19.21,0,0,0,19.21-19.21V132.16A19.21,19.21,0,0,0,974.23,113H818.48c-1.1,0-3.54-.14-7.14-.14-27,0-121,5.31-195.16,73.57C534,262,545.39,352.6,548.12,368.31v145h-137a19.21,19.21,0,0,0-19.21,19.21V727.85A19.21,19.21,0,0,0,411.09,747.07Z"/>
</svg>