<svg width="56" height="21" viewBox="0 0 56 21" fill="none" xmlns="http://www.w3.org/2000/svg">
<g clip-path="url(#clip0_380_4492)">
<path d="M40.0343 9.64586C39.2022 9.49192 38.2471 9.46101 37.7543 8.90707C37.6578 8.77531 37.5983 8.62015 37.5819 8.45765C37.5655 8.29516 37.5928 8.13122 37.661 7.98283C37.8712 7.66527 38.1705 7.41685 38.5214 7.26871C38.8722 7.12057 39.2589 7.07931 39.6331 7.1501C39.9713 7.13987 40.3053 7.22747 40.5949 7.40238C40.8845 7.5773 41.1175 7.83209 41.2659 8.13616C41.3745 8.39036 41.4371 8.66186 41.4507 8.93798H43.7319C43.7521 8.05196 43.431 7.19207 42.835 6.53616C42.2343 6.01413 41.5233 5.63483 40.7552 5.4267C39.9871 5.21856 39.1818 5.18699 38.3998 5.33434C37.2901 5.48828 35.8113 6.13495 35.3174 7.58404C35.1062 8.14326 35.0728 8.75404 35.2217 9.33296C35.3706 9.91188 35.6947 10.4307 36.1495 10.8186C37.1974 11.6204 39.1689 11.8362 39.9707 12.0216C40.8944 12.2034 41.3574 12.3295 41.5107 12.8525C41.5639 13.0224 41.5779 13.2022 41.5518 13.3783C41.5256 13.5544 41.46 13.7223 41.3598 13.8695C40.7737 14.6392 39.5725 14.7016 38.6168 14.424C37.8156 14.1786 37.4762 13.5301 37.3228 12.6665H34.9204C34.9271 13.3846 35.1527 14.0836 35.5671 14.6701C35.881 15.1441 36.2945 15.544 36.7787 15.8419C37.2628 16.1399 37.8061 16.3288 38.3707 16.3956C39.6785 16.6561 41.0348 16.5049 42.2531 15.9628C42.7426 15.6663 43.1712 15.2795 43.5162 14.8228C43.8627 14.3084 44.0604 13.7083 44.0875 13.0887C44.1145 12.469 43.9699 11.854 43.6695 11.3113C42.9919 10.1392 41.4519 9.89253 40.0343 9.64586Z" fill="white"/>
<path d="M32.0839 6.78104C31.5243 6.18719 30.8263 5.74122 30.0523 5.48296C29.2782 5.2247 28.4523 5.1622 27.6482 5.30104C26.9398 5.41248 26.2652 5.68059 25.6735 6.08582C25.0819 6.49106 24.5881 7.0232 24.2282 7.64347C23.8295 8.35087 23.5581 9.12279 23.4264 9.92407C23.1797 11.8029 23.7039 14.9459 27.0021 16.1786C27.8242 16.4733 28.7058 16.5628 29.5703 16.4394C30.4348 16.3159 31.256 15.9832 31.9627 15.4701C32.8578 14.7478 33.4689 13.7325 33.6882 12.6035H30.9445C30.8287 13.095 30.5455 13.5308 30.1433 13.8362C29.7029 14.1216 29.1848 14.2632 28.6604 14.2415C28.136 14.2198 27.6314 14.0358 27.2161 13.715C26.3839 13.0986 26.1076 12.0829 26.0761 10.6338C26.0761 9.86407 26.2918 8.63377 26.9385 8.04589C27.2652 7.76768 27.6569 7.57657 28.0772 7.49032C28.4976 7.40407 28.9329 7.42548 29.3427 7.55256C29.789 7.70777 30.1751 7.99964 30.4461 8.38673C30.7171 8.77382 30.8593 9.23645 30.8524 9.70892H26.9694V11.6483H33.6888C33.7223 10.965 33.66 10.2804 33.5039 9.61438C33.2468 8.57623 32.7617 7.60837 32.0839 6.78104Z" fill="white"/>
<path d="M54.8335 13.5199V10.1921C54.8406 9.34497 54.7686 8.49907 54.6183 7.66538C54.4335 6.86417 53.7244 5.53932 51.4444 5.26175C51.0202 5.23145 50.5656 5.23145 50.1111 5.23145H50.0905C49.3417 5.25029 48.6004 5.38502 47.8929 5.63084C47.2633 5.90613 46.7319 6.36565 46.3686 6.94887C46.0054 7.5321 45.8272 8.21168 45.8577 8.89811H48.322C48.3071 8.57491 48.3904 8.25477 48.561 7.97987C48.7316 7.70496 48.9815 7.48819 49.2777 7.35811C49.5422 7.25278 49.8246 7.19949 50.1093 7.20114C50.4041 7.17647 50.701 7.21019 50.9828 7.30035C51.2646 7.39051 51.5259 7.53536 51.7517 7.7266C51.8865 7.86098 51.9833 8.02868 52.0323 8.21264C52.0813 8.39659 52.0806 8.59024 52.0305 8.77387C51.8759 9.42114 51.1674 9.63629 50.0911 9.79084V9.79387C49.7274 9.85448 49.3032 9.88417 48.8505 9.94478C47.5565 10.0987 45.7074 10.746 45.2747 12.6254C45.1707 13.1771 45.2189 13.7468 45.4142 14.2732C45.6095 14.7996 45.9445 15.2629 46.3832 15.6133C47.1632 16.1733 48.1037 16.4655 49.0638 16.446C49.4154 16.4484 49.7665 16.4173 50.1123 16.3533V16.3478C50.9122 16.159 51.6547 15.7803 52.2771 15.2436C52.3377 15.5544 52.4414 15.8553 52.585 16.1375H55.1747C54.8746 15.2995 54.7583 14.4068 54.8335 13.5199ZM52.0602 13.1199C51.8832 13.4942 51.6044 13.8111 51.2557 14.0343C50.9071 14.2576 50.5026 14.3782 50.0887 14.3824V14.386C49.8932 14.4251 49.6929 14.4341 49.4947 14.4127C49.2191 14.4256 48.9455 14.3601 48.7055 14.2239C48.4655 14.0877 48.2691 13.8863 48.139 13.643C48.0469 13.4538 48.0041 13.2444 48.0147 13.0343C48.0253 12.8241 48.0889 12.6201 48.1996 12.4411C48.5693 11.7945 49.2165 11.6714 50.1105 11.4866V11.4836C50.4152 11.4454 50.7166 11.3846 51.0123 11.3017C51.4419 11.2342 51.8459 11.0534 52.1826 10.7781C52.2165 11.5606 52.1755 12.3446 52.0602 13.1193V13.1199Z" fill="white"/>
<path d="M14.5155 16.7465C10.1489 15.2392 9.34038 11.1992 10.4295 8.37075C10.719 7.67616 11.1592 7.05458 11.7183 6.55094C12.2774 6.0473 12.9415 5.67418 13.6624 5.45855C14.3834 5.24292 15.1432 5.19017 15.887 5.30412C16.6309 5.41806 17.3401 5.69586 17.9634 6.11741C20.6064 8.01256 20.3271 11.6483 20.3271 11.6483H13.5519V9.70893H17.4828C17.5059 9.43788 17.469 9.16507 17.3748 8.9099C17.2805 8.65473 17.1311 8.42347 16.9374 8.23256C16.5751 7.83112 16.0871 7.56479 15.5535 7.47735C15.0199 7.3899 14.4724 7.48653 14.001 7.75135C13.2392 8.15499 12.261 9.83317 12.8355 12.241C13.381 14.0695 15.0937 14.7956 16.6355 14.795C18.9319 14.795 20.6707 13.1962 20.6737 10.578C20.6766 8.30036 19.8777 6.09436 18.417 4.34677C16.9563 2.59918 14.927 1.42154 12.685 1.02031C10.4429 0.619085 8.13118 1.01988 6.15504 2.15242C4.17891 3.28496 2.6645 5.07697 1.87732 7.21428C1.09014 9.35159 1.08043 11.6978 1.84989 13.8415C2.61935 15.9853 4.11887 17.7898 6.08556 18.9387C8.05224 20.0875 10.3606 20.5074 12.6059 20.1248C14.8512 19.7421 16.8901 18.5813 18.3652 16.8459C17.104 17.2224 15.7556 17.1876 14.5155 16.7465ZM5.93432 11.7847C5.71549 11.785 5.50146 11.7205 5.31933 11.5992C5.1372 11.4778 4.99515 11.3052 4.91116 11.1032C4.82717 10.9011 4.805 10.6786 4.84748 10.464C4.88995 10.2493 4.99515 10.052 5.14976 9.89717C5.30437 9.7423 5.50145 9.63678 5.71605 9.59395C5.93066 9.55113 6.15314 9.57292 6.35536 9.65659C6.55757 9.74025 6.73042 9.88201 6.85203 10.0639C6.97365 10.2459 7.03857 10.4598 7.03857 10.6786C7.03857 10.9717 6.92228 11.2527 6.71525 11.4601C6.50822 11.6675 6.22735 11.7842 5.93432 11.7847Z" fill="white"/>
</g>
<defs>
<clipPath id="clip0_380_4492">
<rect width="55" height="20" fill="white" transform="translate(0.900879 0.658447)"/>
</clipPath>
</defs>
</svg>
