<svg width="14" height="14" viewBox="0 0 14 14" fill="none" xmlns="http://www.w3.org/2000/svg">
<path d="M7 4.45455C5.59364 4.45455 4.45455 5.59364 4.45455 7C4.45455 8.40636 5.59364 9.54545 7 9.54545C8.40636 9.54545 9.54545 8.40636 9.54545 7C9.54545 5.59364 8.40636 4.45455 7 4.45455ZM12.6891 6.36364C12.3964 3.71 10.29 1.60364 7.63636 1.31091V0H6.36364V1.31091C3.71 1.60364 1.60364 3.71 1.31091 6.36364H0V7.63636H1.31091C1.60364 10.29 3.71 12.3964 6.36364 12.6891V14H7.63636V12.6891C10.29 12.3964 12.3964 10.29 12.6891 7.63636H14V6.36364H12.6891ZM7 11.4545C4.53727 11.4545 2.54545 9.46273 2.54545 7C2.54545 4.53727 4.53727 2.54545 7 2.54545C9.46273 2.54545 11.4545 4.53727 11.4545 7C11.4545 9.46273 9.46273 11.4545 7 11.4545Z" fill="#FBFFFE"/>
</svg>
